<svg id="Capa_1" enable-background="new 0 0 512 512" height="512" viewBox="0 0 512 512" width="512" xmlns="http://www.w3.org/2000/svg"><g><g><g><g><path d="m511.762 353.254v132.862c0 5.684-4.613 10.297-10.297 10.297h-491.168c-5.684.001-10.297-4.612-10.297-10.296v-132.863z" fill="#31a7fb"/><path d="m0 330.293h511.762v33.258h-511.762z" fill="#1c96f9"/></g><g><g><g><path d="m348.482 187.812c-76.692 10.4-124.223-26.309-145.445-48.643 16.094-25.784 47.006-60.073 104.072-81.192 43.937-16.259 63.316-29.81 71.719-39.293 4.438-4.994 12.511-3.769 15.137 2.378 12.788 29.82 26.71 94.753-45.483 166.75z" fill="#cbe5e7"/><g><path d="m305.379 94.294-42.022 42.022c-4.026 4.026-10.544 4.026-14.57 0l-24.62-24.62c18.164-19.472 44.669-39.551 82.943-53.719.422-.154.834-.309 1.246-.463 8.03 11.131 7.042 26.762-2.977 36.78z" fill="#a9d3d8"/></g><path d="m348.482 187.812c-13.788 1.874-26.638 2.214-38.552 1.39 68.022-64.84 65.273-124.46 54.749-158.636 6.601-4.448 11.1-8.433 14.148-11.883 4.438-4.994 12.511-3.769 15.137 2.378 12.789 29.821 26.711 94.754-45.482 166.751z" fill="#a9d3d8"/><path d="m356.833 179.091c-11.625 12.706-25.866 25.66-43.217 38.727-17.618 13.273-27.03 34.773-24.548 56.695l.01.144-102.002-100.9s4.222-17.278 19.111-39.479c19.122 21.212 67.651 61.72 149.101 45.121.526-.103 1.04-.206 1.545-.308z" fill="#688d97"/><path d="m356.833 179.091c-11.625 12.706-25.866 25.66-43.217 38.727-17.618 13.273-27.03 34.773-24.548 56.695l.01.144-30.87-30.541c4.006-11.522 11.409-21.819 21.49-29.418 14.035-10.575 26.041-21.078 36.266-31.427 12.13.165 25.238-.999 39.324-3.872.526-.103 1.04-.206 1.545-.308z" fill="#557983"/></g><g><path d="m194.995 342.35c-71.379 70.452-135.602 56.644-165.205 43.948-6.147-2.636-7.373-10.709-2.379-15.137 9.484-8.402 23.034-27.791 39.293-71.719 21.202-57.293 55.676-88.235 81.501-104.268 54.976 46.903 54.791 107.81 46.79 147.176z" fill="#cbe5e7"/><path d="m194.995 342.35c-71.379 70.452-135.602 56.644-165.205 43.948-6.147-2.636-7.373-10.709-2.379-15.137 1.771-1.575 3.697-3.532 5.746-5.962 35.782 10.678 98.378 12.367 165.628-63.903.359 15.023-1.35 29.037-3.79 41.054z" fill="#a9d3d8"/><path d="m182.484 179.399 100.901 102.013-.144-.021c-21.922-2.471-43.423 6.94-56.695 24.559-12.954 17.196-25.804 31.344-38.398 42.918 9.391-36.812 14.54-102.074-45.121-150.347 22.189-14.9 39.457-19.122 39.457-19.122z" fill="#688d97"/><path d="m283.384 281.412-.144-.021c-21.922-2.471-43.423 6.94-56.695 24.559-12.954 17.196-25.804 31.344-38.398 42.918 2.976-11.656 5.53-26.175 5.715-42.115 7.393-7.99 14.848-16.918 22.334-26.865 10.184-13.51 25.207-22.2 41.549-24.394h.01z" fill="#557983"/></g><g><path d="m172.78 178.001c35.56 42.516 91.591 123.515 104.882 224.229h127.696s-81.672-172.251-220.09-240.056c-10.025-4.91-19.65 7.265-12.488 15.827z" fill="#3f5959"/><path d="m405.352 402.227h-43.484s-68.465-144.395-186.263-220.809c-.947-1.164-1.895-2.307-2.821-3.419-7.167-8.557 2.461-20.738 12.48-15.827 138.423 67.806 220.088 240.055 220.088 240.055z" fill="#384848"/></g></g><path d="m504.275 424.674v-30.415s-30.662 6.641-65.452 0c-123.317-23.54-232.518 1.219-232.518 1.219v29.196z" fill="#31a7fb"/><g><path d="m471.331 404.947c-10.129 0-21.775-.776-33.956-3.102-120.187-22.941-228.287.922-229.365 1.164-4.16.937-8.295-1.667-9.236-5.826-.942-4.159 1.664-8.294 5.823-9.237 4.523-1.026 112.193-24.842 235.674-1.273 32.864 6.274 62.078.102 62.369.038 4.177-.902 8.281 1.745 9.183 5.913.903 4.169-1.745 8.28-5.913 9.183-.868.187-14.838 3.14-34.579 3.14z" fill="#8dcafc"/></g></g><g><path d="m295.67 454.581c-3.387 0-6.494-2.244-7.44-5.668-1.135-4.111 1.276-8.364 5.388-9.501 2.814-.776 70.197-18.831 180.169-.17 4.205.714 7.035 4.701 6.322 8.906-.714 4.205-4.706 7.035-8.906 6.322-106.62-18.092-172.815-.351-173.472-.17-.688.19-1.38.281-2.061.281z" fill="#1c96f9"/></g><g><path d="m183.181 471.69c-64.754 0-106.933-8.065-109.095-8.488-4.186-.818-6.916-4.874-6.098-9.06.818-4.185 4.871-6.925 9.06-6.098.775.151 64.801 12.324 154.591 6.674 4.267-.254 7.926 2.965 8.193 7.222.267 4.258-2.965 7.925-7.222 8.193-17.577 1.108-34.137 1.557-49.429 1.557z" fill="#1785f8"/></g><g><path d="m199.663 439.034h-14.751c-4.266 0-7.723-3.457-7.723-7.723s3.457-7.723 7.723-7.723h14.751c4.266 0 7.723 3.457 7.723 7.723s-3.458 7.723-7.723 7.723z" fill="#8dcafc"/></g><g><path d="m462.597 371.12h-11.597c-4.266 0-7.723-3.457-7.723-7.723s3.457-7.723 7.723-7.723h11.597c4.266 0 7.723 3.457 7.723 7.723s-3.458 7.723-7.723 7.723z" fill="#1785f8"/></g></g><g><path d="m286.973 320.418c-3.244 0-6.264-2.059-7.334-5.307l-4.711-14.297c-1.335-4.051.867-8.418 4.917-9.752 4.056-1.336 8.419.868 9.752 4.917l4.711 14.297c1.335 4.051-.867 8.418-4.917 9.752-.802.264-1.617.39-2.418.39z" fill="#688d97"/></g><g><path d="m305.461 299.337c-2.095 0-4.181-.847-5.705-2.515l-6.595-7.221c-2.876-3.149-2.655-8.034.495-10.91 3.149-2.876 8.034-2.655 10.91.495l6.595 7.221c2.876 3.149 2.655 8.034-.495 10.91-1.481 1.352-3.346 2.02-5.205 2.02z" fill="#557983"/></g><g id="XMLID_561_"><path d="m305.514 152.843c-.025 0-.05 0-.074 0l-.107-.001c-4.266-.04-7.691-3.531-7.65-7.795.04-4.24 3.49-7.65 7.721-7.65h.074l.107.001c4.266.04 7.691 3.531 7.65 7.795-.041 4.24-3.491 7.65-7.721 7.65z" fill="#a9d3d8"/></g><g id="XMLID_576_"><path d="m123 342.755h-.107c-4.266 0-7.723-3.457-7.723-7.723s3.457-7.723 7.723-7.723h.107c4.266 0 7.723 3.457 7.723 7.723s-3.457 7.723-7.723 7.723z" fill="#a9d3d8"/></g><g id="XMLID_562_"><path d="m326.912 166.509h-.107c-4.266 0-7.723-3.457-7.723-7.723s3.457-7.723 7.723-7.723h.107c4.266 0 7.723 3.457 7.723 7.723s-3.457 7.723-7.723 7.723z" fill="#688d97"/></g><g id="XMLID_564_"><path d="m344.308 136.027h-.107c-4.266 0-7.723-3.457-7.723-7.723s3.457-7.723 7.723-7.723h.107c4.266 0 7.723 3.457 7.723 7.723s-3.458 7.723-7.723 7.723z" fill="#a9d3d8"/></g><g id="XMLID_578_"><path d="m366.342 129.649h-.107c-4.266 0-7.723-3.457-7.723-7.723s3.457-7.723 7.723-7.723h.107c4.266 0 7.723 3.457 7.723 7.723s-3.458 7.723-7.723 7.723z" fill="#90bac4"/></g><g id="XMLID_565_"><path d="m165.242 299.337h-.107c-4.266 0-7.723-3.457-7.723-7.723s3.457-7.723 7.723-7.723h.107c4.266 0 7.723 3.457 7.723 7.723s-3.457 7.723-7.723 7.723z" fill="#a9d3d8"/></g><g id="XMLID_568_"><path d="m143.605 244.389c-.025 0-.05 0-.074 0l-.107-.001c-4.266-.04-7.691-3.531-7.65-7.795.04-4.24 3.49-7.65 7.721-7.65h.074l.107.001c4.266.04 7.691 3.531 7.65 7.795-.04 4.24-3.49 7.65-7.721 7.65z" fill="#688d97"/></g><g id="XMLID_567_"><path d="m158.285 330.855h-.107c-4.266 0-7.723-3.457-7.723-7.723s3.457-7.723 7.723-7.723h.107c4.266 0 7.723 3.457 7.723 7.723s-3.458 7.723-7.723 7.723z" fill="#90bac4"/></g></g><g><g><path d="m305.378 69.939c11.122-11.122 11.122-29.155 0-40.277-11.122-11.122-29.155-11.122-40.277 0l-5.389 5.389c-2.011 2.011-5.27 2.011-7.281 0l-5.389-5.389c-8.861-8.861-24.642-10.424-35.069-3.472l-.939.626c-15.64 10.427-17.562 29.832-4.27 43.124l42.026 42.026c4.021 4.021 10.541 4.021 14.562 0z" fill="#fb6a3b"/></g><g><path d="m305.383 69.944-42.032 42.022c-4.016 4.016-10.534 4.016-14.56 0l-6.755-6.755 39.571-39.561c11.121-11.121 11.121-29.161 0-40.282-1.153-1.153-2.389-2.193-3.676-3.089 2.399-.638 4.85-.958 7.311-.958 7.29 0 14.581 2.78 20.141 8.341 11.121 11.12 11.121 29.151 0 40.282z" fill="#fb5532"/></g></g></g></svg>